<svg xmlns="http://www.w3.org/2000/svg" width="360" height="360" viewBox="0 0 360 360" fill="none" class="injected-svg" data-src="/scenes/1/templated-102-build-your-own-profile-picture.svg" xmlns:xlink="http://www.w3.org/1999/xlink" role="img" style="width: 100%; height: 100%; max-width: 100%; max-height: 100%; position: absolute; top: 0; left: 0; right: 0; bottom: 0; z-index: 0;" id="scene">
<g id="templated-102 - build your own profile picture">
<g id="Frame 1430105697">
<g clip-path="url(#clip0_7673_139177-1555)">
<rect x="60" y="60" width="240" height="240" rx="120" fill="#E9EAEE"/>
<g id="singaporean-box-1" transform="translate(-49 -28) scale(1.00)" style="--color-illustration-primary: #334155; --color-illustration-secondary: #D1D5DB; --color-illustration-accent: #EF4444; --color-illustration-skin: #F5B896;">

<svg xmlns="http://www.w3.org/2000/svg" width="504" height="700" viewBox="0 0 504 700" fill="none" class="injected-svg" data-src="/singaporean/lower/039-sit-on-floor.svg" xmlns:xlink="http://www.w3.org/1999/xlink">
<path d="M493.607 373.721C493.617 379.295 484.583 389.065 479.144 395.559L479.182 415.938L500.537 419.901C500.35 413.661 500.497 391.812 502.583 378.567C505.189 362.011 493.593 366.011 493.607 373.721Z" fill="#334155" stroke="black" stroke-width="1.9" stroke-linecap="round" stroke-linejoin="round"/>
<path d="M217.398 413.514C242.56 419.747 256.624 418.097 273.736 414.592C320.055 405.103 333.854 400.719 359.753 401.793C373.243 402.353 388.976 408.56 418.661 411.422C428.613 412.381 465.633 416.662 478.09 417.774L478.092 386.249L392.399 370.075L385.537 359.247C383.637 355.963 381.489 352.404 379.223 349.285C369.551 335.966 347.956 307.392 340.979 311.388C329.603 317.903 257.845 340.169 216.88 346.768L197.462 349.297C197.462 349.297 192.235 407.281 217.398 413.514Z" fill="#D1D5DB"/>
<path d="M238.554 365.894C283.227 359.698 351.365 361.541 351.365 361.541L392.399 370.075M392.399 370.075L478.092 386.249L478.09 417.774C465.633 416.662 428.613 412.381 418.661 411.422C388.976 408.56 373.243 402.353 359.753 401.793C333.854 400.719 320.055 405.103 273.736 414.592C256.624 418.097 242.56 419.747 217.398 413.514C192.235 407.281 197.462 349.297 197.462 349.297L216.88 346.768C257.845 340.169 329.603 317.903 340.979 311.388C347.956 307.392 369.551 335.966 379.223 349.285M392.399 370.075C390.576 369.271 385.322 357.682 379.223 349.285M392.399 370.075L379.223 349.285" stroke="black" stroke-width="1.9" stroke-linecap="round" stroke-linejoin="round"/>
<path d="M341.593 348.057C338.085 348.808 326.251 361.468 326.251 361.468L348.299 361.466C348.299 361.466 345.101 347.307 341.593 348.057Z" fill="white" stroke="black" stroke-width="1.9" stroke-linecap="round" stroke-linejoin="round"/>
<path d="M242.541 375.033C239.956 383.324 230.124 398.354 211.48 392.149" stroke="black" stroke-width="1.9" stroke-linecap="round" stroke-linejoin="round"/>
</svg><svg xmlns="http://www.w3.org/2000/svg" width="500" height="700" viewBox="0 0 500 700" fill="none" class="injected-svg" data-src="/singaporean/upper/templated-023-hold-left-business-outfit.svg" xmlns:xlink="http://www.w3.org/1999/xlink">
<g id="templated-023 - hold-left business outfit">
<g id="NEW your singaporean">
<g id="upper body">
<g id="Group 632998">
<path id="Vector 40-1564" d="M239.299 222C251.799 226.5 269.299 247 279.799 256.5C282.599 269.3 272.799 266.822 276.799 272.488C264.399 276.888 264.632 248.333 252.799 247C273.599 281.8 280.132 323.5 280.799 345.5C265.299 340 237.299 343 226.799 348C218.399 352 198.632 349 189.799 347V284.988C183.799 281.488 197.141 285.075 187.141 282.575C193.541 258.975 204.733 229.494 209.299 217.5L239.299 222Z" fill="#F5B896" stroke="black" stroke-width="1.9" stroke-linecap="round" stroke-linejoin="round"/>
<path id="Vector 63-1565" d="M274.299 343.5C279.499 328.3 272.465 299.667 269.299 284C274.499 299.6 280.132 329.333 281.299 345.5L274.299 343.5Z" fill="black" stroke="black" stroke-width="1.9" stroke-linecap="round" stroke-linejoin="round"/>
<path id="Vector 293-1566" d="M219.799 292.988C223.299 291.988 231.599 289.988 236.799 289.988C241.999 289.988 249.299 291.988 252.299 292.988" stroke="black" stroke-width="1.5" stroke-linecap="round" stroke-linejoin="round"/>
<g id="hands">
<path id="Vector 103-1567" d="M310.299 305.5C321.299 282 261.352 229.325 242.352 223.825C242.352 223.825 244.437 237.5 251.299 251.5C258.161 265.5 261.799 266 261.799 266L250.437 291.486C256.23 296.767 265.712 293.412 273.937 297.102C289.851 304.242 306.673 307.808 310.299 305.5Z" fill="#F5B896" stroke="black" stroke-width="1.9" stroke-linecap="round" stroke-linejoin="round"/>
<path id="Vector 104-1568" d="M262.299 276.5C257.499 276.9 258.632 281 259.799 283C264.199 286.2 269.632 287.333 271.799 287.5M262.299 276.5C261.188 274.5 263.399 271.4 267.799 273C272.199 274.6 274.965 274.667 275.799 274.5C276.999 274.469 280.299 266.82 281.799 263C284.999 265.8 283.799 273.5 282.799 277C282.799 277 286.937 285.486 299.437 288.5M262.299 276.5C264.299 280.1 270.465 281.667 273.299 282" stroke="black" stroke-width="1.9" stroke-linecap="round" stroke-linejoin="round"/>
<path id="Vector 104_2-1569" d="M244.588 295.432L256.587 248.77C256.986 247.219 258.532 246.255 260.1 246.58L283.207 251.36C284.889 251.708 285.936 253.394 285.502 255.055L283.51 262.691C283.386 263.168 282.956 263.5 282.463 263.5C282.056 263.5 281.683 263.729 281.499 264.092L276.363 274.202C275.947 275.022 275.171 275.599 274.254 275.542C272.931 275.459 270.866 275.108 268.135 274.154C267.849 274.054 267.579 273.901 267.332 273.726C265.624 272.51 264.512 272.343 263.788 272.731C261.761 273.816 259.105 277.224 258.705 279.489C258.542 280.409 258.657 281.454 259.11 282.361C259.506 283.157 259.863 284.008 260.023 284.882C260.899 289.673 267.59 293.758 272.757 295.633C274.342 296.208 275.382 297.851 274.992 299.491L274.469 301.686C274.095 303.256 272.546 304.249 270.963 303.933L246.905 299.121C245.218 298.784 244.16 297.099 244.588 295.432Z" fill="white" stroke="black" stroke-width="1.9" stroke-linecap="round" stroke-linejoin="round"/>
<circle id="Ellipse 19" cx="262.974" cy="255.022" r="3" transform="rotate(-11.4818 262.974 255.022)" fill="black"/>
</g>
</g>
<g id="upper body_2">
<path id="Rectangle 34647637-1570" d="M209.832 218.104C209.832 218.104 231.169 222.077 237.52 222.152C243.87 222.228 251.881 233.005 251.881 233.005L264.88 343.836C264.88 343.836 254.691 350.695 209.371 348.604C164.051 346.513 209.832 218.104 209.832 218.104Z" fill="white" stroke="black" stroke-width="1.9" stroke-linecap="round" stroke-linejoin="round"/>
<path id="Vector 63_2-1571" d="M274.299 343.5C279.499 328.3 272.465 299.667 269.299 284C274.499 299.6 280.132 329.333 281.299 345.5L274.299 343.5Z" fill="black" stroke="black" stroke-width="1.9" stroke-linecap="round" stroke-linejoin="round"/>
<g id="Vector 45">
<path d="M203.614 391.241C201.209 382.582 173.23 309.26 210.979 257.553C223.717 235.744 214.577 234.136 211.254 223.99C196.01 244.865 160.145 290.656 185.928 389.295C183.592 398.174 181.641 415.724 187.266 416.219C189.981 416.458 190.255 415.051 190.077 413.587C190.471 415.489 191.333 417.473 193.808 417.745C197.345 418.135 196.155 413.283 196.257 412.16C196.303 415.656 197.855 418.222 200.507 418.175C203.815 418.115 200.507 406.656 201.916 399.943C203.048 402.372 206.352 406.53 210.512 403.729C211.145 403.728 205.257 397.156 203.614 391.241Z" fill="#F5B896"/>
<path d="M196.257 412.16C196.303 415.656 197.855 418.222 200.507 418.175C203.815 418.115 200.507 406.656 201.916 399.943C203.048 402.372 206.352 406.53 210.512 403.729C211.145 403.729 205.257 397.156 203.614 391.241C201.209 382.582 173.23 309.26 210.979 257.553C223.717 235.744 214.577 234.136 211.254 223.99C196.01 244.865 160.145 290.656 185.928 389.295C183.592 398.174 181.641 415.724 187.266 416.219C191.765 416.616 189.562 412.49 189.705 411.078M196.257 412.16C196.155 413.283 197.345 418.135 193.808 417.745C190.13 417.34 190.014 413.156 189.705 411.078M196.257 412.16C196.257 412.16 194.645 407.156 195.328 399.521M189.705 411.078C189.705 411.078 188.645 405.656 190.104 398.376" stroke="black" stroke-width="1.9" stroke-linecap="round" stroke-linejoin="round"/>
</g>
<g id="Vector 3176">
<path d="M181.094 384.984C183.006 383.072 196.546 381.639 203.077 381.161C202.306 378.673 199.911 352.759 198.89 349.131C205.872 353.381 231.421 354.361 238.668 351.82C229.468 342.516 219.231 265.816 220.064 233.275C216.264 232.875 213.378 225.668 209.077 217.585C192.351 237.178 177.492 288.146 175.644 301.655C170.209 341.369 178.705 387.373 181.094 384.984Z" fill="#334155"/>
<path d="M198.89 349.131C199.911 352.759 202.306 378.673 203.077 381.161C196.546 381.639 183.006 383.072 181.094 384.984C178.705 387.373 170.209 341.369 175.644 301.655C177.492 288.146 192.351 237.178 209.077 217.585C213.378 225.668 216.264 232.875 220.064 233.275C219.231 265.816 229.468 342.516 238.668 351.82C231.421 354.361 205.872 353.381 198.89 349.131ZM198.89 349.131C196.475 338.306 194.945 305.955 208.145 263.155" stroke="black" stroke-width="1.9" stroke-linecap="round" stroke-linejoin="round"/>
</g>
<g id="hands_2">
<g id="Vector 3178">
<path d="M316.624 304.186C326.024 276.986 250.835 220.852 236.385 220.852C237.505 224.371 239.861 230.47 237.175 231.319C246.508 255.986 264.877 318.761 258.556 349.994C258.556 349.994 279.163 358.744 281.517 349.994C283.871 341.243 276.934 297.739 276.934 297.739L281.517 300.639C292.117 307.839 309.291 311.101 316.624 304.186Z" fill="#334155"/>
<path d="M281.517 300.639C292.117 307.839 309.291 311.1 316.624 304.186C326.024 276.986 250.835 220.852 236.385 220.852C237.505 224.371 239.861 230.47 237.175 231.319C246.508 255.986 264.877 318.761 258.556 349.994C258.556 349.994 279.163 358.744 281.517 349.994C283.871 341.243 276.934 297.739 276.934 297.739L281.517 300.639ZM281.517 300.639L290.586 283.061C293.17 285.727 300.854 288.699 305.561 288.699" stroke="black" stroke-width="1.9" stroke-linecap="round" stroke-linejoin="round"/>
</g>
<g id="object-hold-left" transform="translate(243.398 169.827) rotate(25.2762)">

<g><svg xmlns="http://www.w3.org/2000/svg" width="164" height="169" viewBox="0 0 164 169" fill="none" class="injected-svg" data-src="/singaporean/object/hold-left/004-phone.svg" xmlns:xlink="http://www.w3.org/1999/xlink">
<path d="M55.5587 106.8L58.1321 56.6771C58.1868 55.6109 59.0692 54.7757 60.1367 54.7796L85.7835 54.8725C86.9113 54.8766 87.8127 55.812 87.7751 56.9392L86.3186 100.599L86.1087 106.89C86.0728 107.966 85.1921 108.82 84.1158 108.823L57.5621 108.903C56.4149 108.906 55.4999 107.946 55.5587 106.8Z" fill="#EF4444" stroke="black" stroke-width="1.9" stroke-linecap="round" stroke-linejoin="round"/>
<circle cx="65.71" cy="63.9678" r="3" transform="rotate(-11.4818 65.71 63.9678)" fill="black"/>
</svg></g></g>
<g id="Vector 104_3">
<path d="M270.008 276.917C265.208 277.317 266.342 281.417 267.508 283.417C268.302 287.026 272.613 295.047 283.508 298.252L290.508 285.238C289.508 283.417 290.508 277.417 290.508 277.417L290.52 277.376C291.525 273.858 293.696 266.26 290.508 263.471C289.008 267.291 284.708 274.886 283.508 274.917C282.675 275.083 279.908 275.017 275.508 273.417C271.108 271.817 268.897 274.917 270.008 276.917Z" fill="#F5B896"/>
<path d="M267.508 283.417C266.342 281.417 265.208 277.317 270.008 276.917M267.508 283.417C271.908 286.617 277.342 287.75 279.508 287.917M267.508 283.417C268.302 287.026 272.613 295.047 283.508 298.252L290.508 285.238C289.508 283.417 290.508 277.417 290.508 277.417C291.508 273.917 293.708 266.271 290.508 263.471C289.008 267.291 284.708 274.886 283.508 274.917C282.675 275.083 279.908 275.017 275.508 273.417C271.108 271.817 268.897 274.917 270.008 276.917M270.008 276.917C272.008 280.517 278.175 282.083 281.008 282.417" stroke="black" stroke-width="1.9" stroke-linecap="round" stroke-linejoin="round"/>
</g>
</g>
<g id="Vector 3269">
<path d="M206.057 273.354C206.786 269.311 207.499 265.685 208.145 262.655L206.057 273.354C201.895 296.442 197.219 333.135 201.645 350.155L198.645 348.655L197.145 329.155L198.645 308.655L200.145 303.655L206.057 273.354Z" fill="black"/>
<path d="M208.145 262.655C203.812 282.989 196.445 330.155 201.645 350.155L198.645 348.655L197.145 329.155L198.645 308.655L200.145 303.655L208.145 262.655Z" stroke="black"/>
</g>
</g>
</g>
</g>
</g>
</svg><svg xmlns="http://www.w3.org/2000/svg" width="500" height="700" viewBox="0 0 500 700" fill="none" class="injected-svg" data-src="/singaporean/head/039-high-slope.svg" xmlns:xlink="http://www.w3.org/1999/xlink">
<path d="M261.289 191.021V152.521C261.289 152.521 257.28 132.509 232.725 132.009C208.17 131.509 205.665 151.509 205.665 151.509C205.665 161.086 208.703 166.464 212.466 169.379C208.321 166.891 202.046 164.924 200.654 171.521C199.05 179.121 207.335 183.021 211.678 183.521C214.885 200.721 211.678 212.354 209.674 216.521C213.683 224.521 227.714 223.188 234.228 221.521V209.021C261.088 209.821 261.289 200.021 261.289 191.021Z" fill="#F5B896" stroke="black" stroke-width="1.9" stroke-linejoin="round"/>
<path d="M233.663 209.057C230.152 208.897 224.384 207.856 222.828 204.972C222.762 204.83 222.699 204.692 222.638 204.557C222.692 204.699 222.755 204.838 222.828 204.972C225.261 210.267 230.539 220.278 233.663 221.057V209.057Z" fill="black" stroke="black" stroke-width="1.9" stroke-linecap="round" stroke-linejoin="round"/>
<path d="M255.021 141.574C256.482 142.387 257.617 141.536 262.864 150.396C267.855 158.825 262.934 164.344 261.918 170.365C261.142 174.967 260.226 153.609 255.021 147.386C241.144 150.396 235.111 147.386 218.821 153.406C214.598 160.63 215.734 175.258 214.598 176.884C214.598 176.884 209.168 164.243 204.341 166.65C201.643 167.997 205.548 166.649 201.928 155.212C201.928 134.143 243.096 121.834 255.021 141.574Z" fill="black" stroke="black" stroke-width="1.50728" stroke-linecap="round" stroke-linejoin="round"/>
<path d="M207.762 164.242L206.778 165.269" stroke="#A0A4AD" stroke-width="1.90922" stroke-linecap="round" stroke-linejoin="round"/>
<path d="M209.966 158.222L209.783 159.631" stroke="#838894" stroke-width="1.90922" stroke-linecap="round" stroke-linejoin="round"/>
<path d="M204.702 158.222L205.282 159.52" stroke="#838894" stroke-width="1.90922" stroke-linecap="round" stroke-linejoin="round"/>
<path d="M215.458 155.814L216.175 157.042" stroke="#334155" stroke-width="1.90922" stroke-linecap="round" stroke-linejoin="round"/>
<path d="M206.755 153.535L207.883 154.402" stroke="#334155" stroke-width="1.90922" stroke-linecap="round" stroke-linejoin="round"/>
<path d="M210.766 166.649L211.303 167.965" stroke="#BFC2C8" stroke-width="1.90922" stroke-linecap="round" stroke-linejoin="round"/>
<path d="M213.544 170.262L213.454 171.68" stroke="#BFC2C8" stroke-width="1.90922" stroke-linecap="round" stroke-linejoin="round"/>
<path d="M213.736 164.242L213.131 165.528" stroke="#A0A4AD" stroke-width="1.90922" stroke-linecap="round" stroke-linejoin="round"/>
</svg><svg xmlns="http://www.w3.org/2000/svg" width="500" height="700" viewBox="0 0 500 700" fill="none" class="injected-svg" data-src="/singaporean/eyes/001-cheery.svg" xmlns:xlink="http://www.w3.org/1999/xlink">
<path d="M254.252 174.171C253.992 173.083 253.36 171.871 251.667 172.027C250.089 172.172 249.258 173.519 249.404 175.093" stroke="black" stroke-width="1.5" stroke-linecap="round" stroke-linejoin="round"/>
<path d="M237.105 174.87C236.896 173.772 236.32 172.532 234.621 172.611C233.038 172.685 232.147 173.992 232.22 175.572" stroke="black" stroke-width="1.5" stroke-linecap="round" stroke-linejoin="round"/>
<path d="M236.528 164.575C236.528 162.5 231.016 162 229.513 166" stroke="black" stroke-width="1.5" stroke-linecap="round" stroke-linejoin="round"/>
<path d="M249.557 164.575C249.557 162.5 255.571 161.5 256.573 166" stroke="black" stroke-width="1.5" stroke-linecap="round" stroke-linejoin="round"/>
<path d="M239.244 179.528C240.05 176.887 242.85 175.398 245.498 176.203C248.145 177.008 249.638 179.802 248.831 182.443C248.353 184.008 247.176 185.168 245.745 185.687" stroke="black" stroke-width="1.5" stroke-linecap="round" stroke-linejoin="round"/>
</svg><svg xmlns="http://www.w3.org/2000/svg" width="500" height="700" viewBox="0 0 500 700" fill="none" class="injected-svg" data-src="/singaporean/mouth/004-slight-smile.svg" xmlns:xlink="http://www.w3.org/1999/xlink">
<path d="M238.032 192.5C238.867 193.667 240.537 196 244.045 196C246.851 196 248.555 193.667 249.056 192.5" stroke="black" stroke-width="1.5" stroke-linecap="round" stroke-linejoin="round"/>
</svg><svg xmlns="http://www.w3.org/2000/svg" width="500" height="700" viewBox="0 0 500 700" fill="none" class="injected-svg" data-src="/singaporean/accessory/016-square-frames.svg" xmlns:xlink="http://www.w3.org/1999/xlink">
<path d="M246.042 169.94C247.219 168.547 249.018 168.547 252.348 168.547C255.678 168.547 256.972 168.765 258.391 169.94C259.222 170.627 259.224 174.129 259.083 176.914C258.979 178.957 257.26 180.5 255.214 180.5L249.274 180.5C249.274 180.5 249.155 178.947 248.053 177.62C246.951 176.292 245.547 175.872 245.547 175.872C245.547 175.872 244.865 171.332 246.042 169.94Z" stroke="black" stroke-width="1.5" stroke-linecap="round" stroke-linejoin="round"/>
<path d="M259.233 173.555L261.178 171.982" stroke="black" stroke-width="1.5" stroke-linecap="round" stroke-linejoin="round"/>
<path d="M225.503 169.94C226.279 168.95 229.011 168.5 234.023 168.5C239.034 168.5 239.542 168.816 240.734 169.94C241.926 171.064 241.539 176.366 241.539 176.366C241.539 176.366 240.832 176.897 240.178 177.808C239.524 178.72 239.207 180.5 239.207 180.5H229.192C227.109 180.5 225.372 178.901 225.267 176.82C225.126 174.008 225.052 170.517 225.503 169.94Z" stroke="black" stroke-width="1.5" stroke-linecap="round" stroke-linejoin="round"/>
<path d="M214.479 168.5C217.485 170.167 222.576 172.904 225.098 173.428" stroke="black" stroke-width="1.5" stroke-linecap="round" stroke-linejoin="round"/>
</svg></g>
</g>
</g>
</g>
<defs>
<clipPath id="clip0_7673_139177-1555">
<rect x="60" y="60" width="240" height="240" rx="120" fill="white"/>
</clipPath>
</defs>
</svg>